<?xml version="1.0" encoding="UTF-8"?>
<svg width="261px" height="153px" viewBox="0 0 261 153" version="1.1" xmlns="http://www.w3.org/2000/svg" xmlns:xlink="http://www.w3.org/1999/xlink">
    <!-- Generator: Sketch 52.5 (67469) - http://www.bohemiancoding.com/sketch -->
    <title>header-maior</title>
    <desc>Created with Sketch.</desc>
    <g id="Symbols" stroke="none" stroke-width="1" fill="none" fill-rule="evenodd">
        <g id="header-maior">
            <g id="como_anda-assinaturas-25">
                <g id="Group-9">
                    <path d="M100.50928,151.801932 L260.855862,151.801932" id="Stroke-3" stroke="#1A1919" stroke-width="2"></path>
                    <path d="M17.0361578,20.1065498 L23.0036723,20.2627966 L23.1782209,13.6007527 C23.2827346,9.61645708 22.5123504,6.39831 20.8681458,3.94685023 C19.2234024,1.49592924 16.5119733,0.221170162 12.7349357,0.122034206 C5.49009185,-0.067617187 1.75399783,4.23671514 1.52342129,13.0334148 L0.535390085,50.764344 C0.305352284,59.5626601 3.81140851,64.0550274 11.0562524,64.2452176 C14.8327512,64.3438148 17.6077505,63.2123718 19.378018,60.8508887 C21.1488242,58.4894056 22.0862148,55.317055 22.1901897,51.3316818 L22.3555799,45.0214628 L16.3880653,44.8652159 L16.1440205,54.180763 C16.1079256,55.5616622 15.6494662,56.7970902 14.7681036,57.8897408 C13.8872797,58.9818527 12.6503551,59.5077043 11.061101,59.4656792 C7.76514954,59.379474 6.16727573,57.5325281 6.26209224,53.9216087 L7.40420029,10.2910126 C7.49847808,6.68278709 9.19116841,4.9193524 12.4871198,5.00609636 C14.076374,5.0475826 15.2836684,5.63701051 16.1063094,6.77384131 C16.9294892,7.91121088 17.3222235,9.17142284 17.2861286,10.5496281 L17.0361578,20.1065498 Z" id="Fill-4" fill="#1A1919"></path>
                    <path d="M48.8361092,51.9107112 L49.8187532,14.3872133 C49.9221894,10.4287793 49.1334883,7.20201165 47.4526501,4.70691051 C45.7707343,2.21288694 43.0291363,0.915498998 39.2267784,0.81582426 C31.9334488,0.625095302 28.1714958,4.9579831 27.9398418,13.8144876 L26.9571979,51.3379856 C26.7255439,60.1950289 30.2553042,64.7181069 37.5486338,64.9088358 C41.3509917,65.0085106 44.1566986,63.8576714 45.9668321,61.4541633 C47.7758882,59.0517327 48.732673,55.8702229 48.8361092,51.9107112 Z M42.8184928,54.582533 C42.716134,58.4887052 40.9992008,60.3970723 37.6693094,60.3097896 C34.337263,60.2225068 32.7243048,58.2268569 32.8266635,54.3212236 L33.9542259,11.2708961 C34.0560459,7.36741784 35.7708241,5.45689557 39.1034092,5.54417831 C42.4333007,5.63092227 44.0478751,7.62926607 43.9460551,11.5327443 L42.8184928,54.582533 Z" id="Fill-5" fill="#1A1919"></path>
                    <path d="M112.510842,53.5782965 L113.493486,16.0547986 C113.596922,12.0963646 112.808221,8.86905818 111.127383,6.37449582 C109.445467,3.88047224 106.703869,2.5830843 102.901511,2.48340956 C95.6081814,2.29268061 91.8462284,6.6255684 91.6145744,15.4820729 L90.6319305,53.0055709 C90.4002765,61.8626142 93.9300368,66.3856922 101.223366,66.5764211 C105.025724,66.6760959 107.831431,65.5252568 109.641565,63.1217486 C111.450621,60.719318 112.407406,57.5378082 112.510842,53.5782965 Z M106.493225,56.2501183 C106.390867,60.1562905 104.673933,62.0646576 101.344042,61.9773749 C98.0119956,61.8900921 96.3990374,59.8944422 96.5013961,55.9888089 L97.6289585,12.9384814 C97.7307785,9.03500315 99.4455567,7.12448087 102.778142,7.21176362 C106.108033,7.29850758 107.722608,9.29685138 107.620788,13.2003296 L106.493225,56.2501183 Z" id="Fill-6" fill="#1A1919"></path>
                    <polygon id="Fill-7" fill="#1A1919" points="85.1676438 65.4977789 86.8134646 2.64288914 81.5931688 2.50657721 71.0917008 38.3442251 70.296535 42.0311129 70.1974086 42.9087893 69.7389492 42.8963973 69.7389492 42.8963973 69.64952 42.8942422 69.6802276 42.5327192 68.9955015 38.2892693 60.3838991 1.95109259 55.234177 1.81585821 53.5883562 64.6707479 59.7083314 64.8313051 60.3003959 42.228846 60.3612724 27.8686796 61.0034388 27.8853818 61.0034388 27.8853818 61.0427661 27.8864594 61.0901744 28.3616654 62.8119562 37.8016713 67.8253795 65.0435853 70.7776211 65.12117 77.2100598 38.1782802 79.5346807 28.3708247 79.6596661 28.3740574 79.6602048 28.3724411 80.3093747 28.3907597 80.0486293 31.05881 79.8633061 34.900867 79.0665241 65.3377605"></polygon>
                    <path d="M144.081887,3.36668938 L126.727771,3.82142169 L122.622646,66.9489353 L131.892038,66.7064832 L132.42592,58.4523374 L141.585411,58.2125792 L142.578291,66.4263164 L151.665592,66.1881746 L144.081887,3.36668938 Z M134.964417,19.2462221 L135.472978,11.378922 L135.924973,11.3670687 L136.882296,19.2850144 L140.680344,50.7208104 L132.915087,50.9244701 L134.964417,19.2462221 Z M167.778474,2.74601209 L168.455658,28.6248067 L169.028867,33.2276245 L168.395859,33.2443268 L161.173642,2.91896123 L152.940228,3.13447418 L154.589281,66.1116675 L164.63229,65.8487417 L164.034838,43.0469331 L163.635639,38.16772 L164.178679,38.1537117 L170.694082,65.6903397 L179.37949,65.4624347 L177.730437,2.48524142 L167.778474,2.74601209 Z M183.416196,65.3568334 L196.082282,65.0254822 C201.269176,64.8891703 204.630314,63.5788516 206.165157,61.0939873 C207.698383,58.609123 208.401964,54.8936798 208.272669,49.9471189 L207.395616,16.4677214 C207.272786,11.762535 206.332163,8.15107679 204.57698,5.63065288 C202.820719,3.11184532 199.71063,1.90982186 195.247789,2.02673763 L181.767143,2.37964008 L183.416196,65.3568334 Z M192.004094,9.53628626 L194.62771,9.4678609 C195.471901,9.44577082 196.129151,9.74533382 196.597847,10.3670887 C197.067081,10.9883047 197.311664,11.6924933 197.332136,12.4753441 L198.431684,54.4604988 C198.452156,55.2449659 198.244206,55.9593913 197.808373,56.6043138 C197.373079,57.2497751 196.731991,57.5832814 195.888339,57.6053715 L193.264723,57.6743356 L192.004094,9.53628626 Z M232.263403,1.05746815 L214.908748,1.51166169 L210.804162,64.6397141 L220.073554,64.3967232 L220.607436,56.1431161 L229.766388,55.903358 L230.759807,64.1170952 L239.846569,63.8789534 L232.263403,1.05746815 Z M223.145394,16.9364621 L223.653955,9.06970073 L224.106489,9.05784752 L225.063274,16.9757932 L228.86186,48.4115892 L221.096064,48.6152489 L223.145394,16.9364621 Z" id="Fill-8" fill="#1A1919"></path>
                </g>
            </g>
        </g>
    </g>
</svg>