<?xml version="1.0" encoding="UTF-8"?>
<svg width="124px" height="35px" viewBox="0 0 124 35" version="1.1" xmlns="http://www.w3.org/2000/svg" xmlns:xlink="http://www.w3.org/1999/xlink">
    <!-- Generator: Sketch 52.5 (67469) - http://www.bohemiancoding.com/sketch -->
    <title>logo-como-anda</title>
    <desc>Created with Sketch.</desc>
    <g id="Symbols" stroke="none" stroke-width="1" fill="none" fill-rule="evenodd">
        <g id="header-menor-mobile-fechado" transform="translate(-15.000000, -16.000000)" fill="#231F20">
            <g id="header-menor" transform="translate(15.000000, 10.000000)">
                <g id="logo-como-anda" transform="translate(0.000000, 6.000000)">
                    <g id="Group-7">
                        <g id="Group-3" transform="translate(0.000000, 0.012222)">
                            <path d="M58.4315308,8.48308333 C58.4847533,6.44197222 58.0773645,4.77836111 57.2074139,3.49169444 C56.337742,2.20641667 54.9194049,1.53752778 52.9532387,1.48613889 C49.1805735,1.38752778 47.2350274,3.62169444 47.1149285,8.18752778 L46.6066679,27.5333611 C46.4868476,32.1000278 48.3125735,34.4319722 52.0852387,34.5303056 C54.0514049,34.5816944 55.5029016,33.9883611 56.4391712,32.7491944 C57.3748836,31.5105833 57.869769,29.8703056 57.9232701,27.8289167 L58.4315308,8.48308333 Z M55.3942274,7.01141667 L54.8107308,29.2064167 C54.757787,31.2203056 53.869724,32.2039167 52.1470993,32.1591944 C50.4239173,32.1141944 49.5899128,31.0853056 49.6428566,29.0714167 L50.225796,6.87641667 C50.2787398,4.86391667 51.1654094,3.87863889 52.8888701,3.92391667 C54.6114948,3.96863889 55.4466139,4.99891667 55.3942274,7.01141667 Z M43.7803038,33.9741944 L44.6315847,1.56836111 L41.9314499,1.49808333 L36.4996926,19.9744722 L36.0886813,21.8755833 L36.0374094,22.3280833 L35.7999982,22.3216944 L35.753742,22.3205833 L35.7696252,22.1341944 L35.4154589,19.9464167 L30.9612117,1.21141667 L28.2978589,1.14197222 L27.446578,33.5478056 L30.6120611,33.6305833 L30.9180207,21.9775278 L30.9495083,14.5739167 L31.2816611,14.5825278 L31.3022813,14.5830833 L31.3268027,14.8280833 L32.2170948,19.69475 L34.8102274,33.7400278 L36.3375173,33.77975 L39.6643398,19.8891944 L40.8667218,14.83225 L40.931369,14.8344722 L40.9316476,14.8333611 L41.2674229,14.8430833 L41.1325555,16.2186389 L41.036978,18.1994722 L40.6245735,33.8916944 L43.7803038,33.9741944 Z M24.9883128,26.9691944 L25.4965735,7.62308333 C25.5500746,5.58225 25.1421285,3.91863889 24.2727353,2.63252778 C23.4027847,1.34669444 21.9847263,0.677527778 20.0182813,0.626416667 C16.2456162,0.527805556 14.2997915,2.76197222 14.1799712,7.32780556 L13.6717106,26.6736389 C13.5518903,31.2403056 15.3776162,33.57225 19.1502813,33.6705833 C21.1167263,33.7219722 22.5679443,33.1286389 23.5042139,31.8894722 C24.4399263,30.6508611 24.9348117,29.0105833 24.9883128,26.9691944 Z M22.4589915,6.15169444 L21.8757735,28.3466944 C21.8231083,30.3605833 20.9347667,31.3441944 19.2124207,31.2994722 C17.48896,31.2544722 16.6549555,30.2255833 16.7078993,28.2116944 L17.2908387,6.01669444 C17.3437825,4.00419444 18.2304521,3.01891667 19.9541915,3.06363889 C21.6765375,3.10863889 22.5116566,4.13891667 22.4589915,6.15169444 Z M11.6269645,10.6528056 L11.7172476,7.21780556 C11.7710274,5.16363889 11.3728342,3.50447222 10.5221106,2.24058333 C9.67166562,0.97725 8.26893303,0.319472222 6.31558472,0.268638889 C2.56827685,0.170861111 0.635548764,2.38975 0.516564494,6.92558333 L0.00551730337,26.3780833 C-0.113745618,30.9141944 1.69971955,33.2303056 5.44730607,33.3283611 C7.40065438,33.3791944 8.83571056,32.7958611 9.75163865,31.5783611 C10.6672881,30.3608611 11.152142,28.7253056 11.2062004,26.6705833 L11.2917465,23.41725 L8.20484315,23.3366944 L8.07861393,28.1394722 C8.05994427,28.8514167 7.82281169,29.4883611 7.36721618,30.0514167 C6.91134202,30.61475 6.2718364,30.8858611 5.44981393,30.8641944 C3.74502292,30.81975 2.91854202,29.8675278 2.96730607,28.0061389 L3.55832629,5.51141667 C3.60709034,3.65113889 4.48261393,2.74197222 6.18712629,2.78669444 C7.00942742,2.80808333 7.63388584,3.11197222 8.05938697,3.69780556 C8.48488809,4.28447222 8.68830382,4.93447222 8.66963416,5.64502778 L8.54006112,10.5719722 L11.6269645,10.6528056 Z" id="Fill-1"></path>
                        </g>
                        <g id="Group-6" transform="translate(62.975281, 0.567778)">
                            <path d="M11.2778975,1.38591667 L2.30141213,1.62063889 L0.178364944,34.16675 L4.97284584,34.0420278 L5.24871101,29.7861944 L9.98634697,29.6625833 L10.5001807,33.8973056 L15.2001987,33.7745278 L11.2778975,1.38591667 Z M6.56171775,9.57258333 L6.8250436,5.51675 L7.05855371,5.51063889 L7.5539964,9.59286111 L9.51849079,25.8000833 L5.50172674,25.9053611 L6.56171775,9.57258333 Z M23.5343919,1.06619444 L23.8846571,14.4081389 L24.1814211,16.7811944 L23.8540054,16.7898056 L20.1184009,1.15508333 L15.8594885,1.26619444 L16.71272,33.7350833 L21.9073447,33.5995278 L21.5980413,21.8436944 L21.3918391,19.3281389 L21.67272,19.3209167 L25.0424548,33.5178611 L29.535156,33.4003611 L28.6822031,0.931472222 L23.5343919,1.06619444 Z M31.623093,33.3459167 L38.1741942,33.1748056 C40.8570526,33.1048056 42.5958391,32.42925 43.3894391,31.1484167 C44.1827604,29.8670278 44.5466796,27.9514722 44.4795245,25.4011944 L44.0258796,8.14008333 C43.9626256,5.71452778 43.4760998,3.85258333 42.5682526,2.55313889 C41.6595694,1.25425 40.0511919,0.634805556 37.7428413,0.695083333 L30.7698616,0.877027778 L31.623093,33.3459167 Z M36.0648009,4.56675 L37.4218346,4.53147222 C37.8587604,4.52008333 38.1984369,4.67452778 38.4408638,4.99508333 C38.6838481,5.31536111 38.810356,5.67841667 38.8209447,6.08202778 L39.3896728,27.7281389 C39.4002616,28.1325833 39.2924234,28.5009167 39.0672728,28.8336944 C38.8421222,29.1661944 38.5102481,29.3381389 38.0741582,29.3495278 L36.7171245,29.3850833 L36.0648009,4.56675 Z M56.88872,0.195361111 L47.9122346,0.429805556 L45.7891874,32.9761944 L50.5836683,32.8509167 L50.8598121,28.5956389 L55.5971694,28.4720278 L56.1110031,32.70675 L60.8110211,32.5839722 L56.88872,0.195361111 Z M52.1725402,8.38230556 L52.4353088,4.32619444 L52.6696548,4.32008333 L53.1642616,8.40202778 L55.1290346,24.6095278 L51.1122706,24.7145278 L52.1725402,8.38230556 Z" id="Fill-4"></path>
                        </g>
                    </g>
                </g>
            </g>
        </g>
    </g>
</svg>