
<svg width="48px" height="48px" viewBox="0 0 48 48" version="1.1" xmlns="http://www.w3.org/2000/svg" xmlns:xlink="http://www.w3.org/1999/xlink">
    <!-- Generator: Sketch 52.5 (67469) - http://www.bohemiancoding.com/sketch -->
    <title>facebook</title>
    <desc>Created with Sketch.</desc>
    <g id="facebook" stroke="none" stroke-width="1" fill="none" fill-rule="evenodd">
        <path d="M25.2970312,43 L7.09730829,43 C5.93865752,43 5,42.06076 5,40.9025605 L5,7.09729201 C5,5.93879768 5.93880497,5 7.09730829,5 L40.9028392,5 C42.0610476,5 43,5.93879768 43,7.09729201 L43,40.9025605 C43,42.0609074 42.0609001,43 40.9028392,43 L31.21945,43 L31.21945,28.2843058 L36.1588293,28.2843058 L36.8984312,22.5493386 L31.21945,22.5493386 L31.21945,18.8879244 C31.21945,17.2275191 31.6805217,16.0960077 34.061521,16.0960077 L37.0983715,16.0946806 L37.0983715,10.96528 C36.5731597,10.8953899 34.7704536,10.7392431 32.6731453,10.7392431 C28.2946604,10.7392431 25.2970312,13.4118749 25.2970312,18.319957 L25.2970312,22.5493386 L20.3449714,22.5493386 L20.3449714,28.2843058 L25.2970312,28.2843058 L25.2970312,43 L25.2970312,43 Z" id="Facebook" fill="currentColor"></path>
    </g>
</svg>