
<svg width="48px" height="48px" viewBox="0 0 48 48" version="1.1" xmlns="http://www.w3.org/2000/svg" xmlns:xlink="http://www.w3.org/1999/xlink">
    <!-- Generator: Sketch 52.5 (67469) - http://www.bohemiancoding.com/sketch -->
    <title>instagram</title>
    <desc>Created with Sketch.</desc>
    <g id="instagram" stroke="none" stroke-width="1" fill="none" fill-rule="evenodd">
        <path d="M38.25,39.4375 L9.75,39.4375 C9.0945,39.4375 8.5625,38.9055 8.5625,38.25 L8.5625,20.4375 L13.3125,20.4375 C12.6938125,21.328125 12.4848125,22.9894375 12.4848125,24.0439375 C12.4848125,30.403 17.670625,35.5769375 24.0439375,35.5769375 C30.4184375,35.5769375 35.60425,30.403 35.60425,24.0439375 C35.60425,22.9894375 35.454625,21.3530625 34.6875,20.4375 L39.4375,20.4375 L39.4375,38.25 C39.4375,38.9055 38.9055,39.4375 38.25,39.4375 M24.0439375,16.753875 C28.08025,16.753875 31.3518125,20.0183125 31.3518125,24.0439375 C31.3518125,28.07075 28.08025,31.3351875 24.0439375,31.3351875 C20.0088125,31.3351875 16.73725,28.07075 16.73725,24.0439375 C16.73725,20.0183125 20.0088125,16.753875 24.0439375,16.753875 M33.5,9.75 L37.0625,9.75 C37.718,9.75 38.25,10.282 38.25,10.9375 L38.25,14.5 C38.25,15.1555 37.718,15.6875 37.0625,15.6875 L33.5,15.6875 C32.8445,15.6875 32.3125,15.1555 32.3125,14.5 L32.3125,10.9375 C32.3125,10.282 32.8445,9.75 33.5,9.75 M38.48275,5 L9.51725,5 C7.0223125,5 5,7.0175625 5,9.5065625 L5,38.4934375 C5,40.9824375 7.0223125,43 9.51725,43 L38.48275,43 C40.9776875,43 43,40.9824375 43,38.4934375 L43,9.5065625 C43,7.0175625 40.9776875,5 38.48275,5" id="Instagram" fill="currentColor"></path>
    </g>
</svg>