<?xml version="1.0" encoding="UTF-8"?>
<svg width="48px" height="48px" viewBox="0 0 48 48" version="1.1" xmlns="http://www.w3.org/2000/svg" xmlns:xlink="http://www.w3.org/1999/xlink">
    <!-- Generator: Sketch 52.5 (67469) - http://www.bohemiancoding.com/sketch -->
    <title>medium</title>
    <desc>Created with Sketch.</desc>
    <g id="medium" stroke="none" stroke-width="1" fill="none" fill-rule="evenodd">
        <path d="M44,35 L42.418,35 C41.8306667,35 41,34.1527333 41,33.6103 L41,13.95 C41,13.4069 41.8306667,12.6666667 42.418,12.6666667 L44,12.6666667 L44,8 L29.6666667,8 L29.6666667,12.6666667 L32.6666667,12.6666667 L32.6666667,33.3333333 L32.5196667,33.3333333 L25.5140667,8 L20.0902333,8 L13.175,33.3333333 L13,33.3333333 L13,12.6666667 L16,12.6666667 L16,8 L4,8 L4,12.6666667 L5.53659,12.6666667 C6.1694,12.6666667 7,13.4069 7,13.95 L7,33.6103 C7,34.1527333 6.1694,35 5.53659,35 L4,35 L4,39.6666667 L19.0054667,39.6666667 L23.9320333,21.3333333 L24.0675667,21.3333333 L29.0397,39.6666667 L44,39.6666667 L44,35" id="Medium" fill="#000000" transform="translate(24.000000, 23.833333) scale(1, -1) translate(-24.000000, -23.833333) "></path>
    </g>
</svg>