<?xml version="1.0" encoding="UTF-8"?>
<svg width="48px" height="48px" viewBox="0 0 48 48" version="1.1" xmlns="http://www.w3.org/2000/svg" xmlns:xlink="http://www.w3.org/1999/xlink">
    <!-- Generator: Sketch 52.5 (67469) - http://www.bohemiancoding.com/sketch -->
    <title>mail</title>
    <desc>Created with Sketch.</desc>
    <g id="mail" stroke="none" stroke-width="1" fill="none" fill-rule="evenodd">
        <g id="ic_mail_24px">
            <g id="Group">
                <polygon id="Shape" points="0 0 48 0 48 48 0 48"></polygon>
                <path d="M40,8 L8,8 C5.8,8 4.02,9.8 4.02,12 L4,36 C4,38.2 5.8,40 8,40 L40,40 C42.2,40 44,38.2 44,36 L44,12 C44,9.8 42.2,8 40,8 L40,8 Z M40,16 L24,26 L8,16 L8,12 L24,22 L40,12 L40,16 L40,16 Z" id="Shape" fill="#FFFFFF"></path>
            </g>
        </g>
    </g>
</svg>